<!DOCTYPE svg PUBLIC "-//W3C//DTD SVG 1.1//EN" "http://www.w3.org/Graphics/SVG/1.1/DTD/svg11.dtd" [
	<!ENTITY ns_flows "http://ns.adobe.com/Flows/1.0/">
]><svg xmlns="http://www.w3.org/2000/svg" width="35" height="35" viewBox="-7.559 -0.458 35 35"><path fill="#FFF" d="M10.302.285c-.047-.38-.674-.38-.72 0C8.013 12.905 0 15.503 0 24.275c0 5.416 4.55 9.81 9.94 9.81 5.393 0 9.942-4.394 9.942-9.81 0-8.772-8.012-11.37-9.58-23.99zm-1.514 13.95c-.105.387-.22.788-.334 1.2-.713 2.53-1.52 5.395-1.52 8.712 0 1.795-1.06 2.435-2.054 2.435-1.132 0-2.053-.93-2.053-2.07 0-3.92 1.887-6.478 3.552-8.737.52-.707 1.012-1.375 1.413-2.04.183-.305.676-.292.9.01.106.143.14.322.095.49z"/></svg>