<!DOCTYPE svg PUBLIC "-//W3C//DTD SVG 1.1//EN" "http://www.w3.org/Graphics/SVG/1.1/DTD/svg11.dtd" [
	<!ENTITY ns_flows "http://ns.adobe.com/Flows/1.0/">
]><svg xmlns="http://www.w3.org/2000/svg" width="60" height="60" viewBox="-0.37 -6.718 60 60"><path fill="#FFF" d="M34.972 31.598c3.582-1.51 6.41-3.566 8.48-6.168 2.073-2.6 3.11-5.434 3.11-8.498s-1.037-5.897-3.11-8.5c-2.07-2.6-4.898-4.656-8.48-6.166C31.39.756 27.492 0 23.282 0c-4.21 0-8.108.755-11.69 2.266-3.584 1.51-6.41 3.566-8.483 6.167S0 13.867 0 16.933c0 2.622.783 5.093 2.35 7.407 1.564 2.314 3.714 4.266 6.447 5.853-.22.53-.446 1.015-.678 1.456-.233.44-.508.864-.828 1.272-.32.407-.567.727-.744.958-.176.23-.463.557-.86.976-.396.42-.65.694-.76.826 0-.022-.045.027-.133.148s-.138.177-.15.167c-.01-.013-.054.043-.13.164l-.116.184-.084.164c-.034.065-.056.132-.066.198-.01.065-.017.138-.017.215s.01.15.033.215c.044.287.17.518.38.695.21.176.436.264.678.264h.1c1.1-.154 2.05-.33 2.843-.53 3.395-.88 6.46-2.292 9.194-4.23 1.985.352 3.925.528 5.82.528 4.212 0 8.11-.755 11.692-2.264zm-18.503-2.76l-1.457 1.023c-.617.42-1.3.85-2.05 1.29l1.158-2.777-3.207-1.852c-2.117-1.233-3.76-2.687-4.928-4.363S4.233 18.74 4.233 16.93c0-2.248.865-4.353 2.596-6.315 1.73-1.962 4.06-3.517 6.993-4.664 2.932-1.145 6.084-1.72 9.458-1.72 3.375 0 6.527.575 9.46 1.72C35.67 7.1 38 8.653 39.733 10.616c1.73 1.96 2.595 4.067 2.595 6.316 0 2.25-.866 4.355-2.596 6.317-1.732 1.962-4.063 3.517-6.995 4.662-2.933 1.145-6.085 1.72-9.46 1.72-1.652 0-3.338-.156-5.058-.464l-1.753-.33z"/><path fill="#FFF" d="M56.912 32.82c1.565-2.305 2.348-4.78 2.348-7.424 0-2.712-.826-5.248-2.48-7.606-1.653-2.358-3.9-4.32-6.746-5.886.507 1.653.76 3.33.76 5.027 0 2.955-.736 5.755-2.215 8.4-1.478 2.645-3.595 4.98-6.35 7.01-2.56 1.853-5.468 3.273-8.73 4.267-3.263.99-6.67 1.487-10.22 1.487-.66 0-1.63-.043-2.91-.13 4.432 2.908 9.635 4.364 15.61 4.364 1.895 0 3.835-.177 5.82-.53 2.732 1.94 5.798 3.352 9.192 4.234.795.2 1.742.374 2.844.528.265.022.508-.056.73-.23.22-.178.363-.42.43-.728-.012-.132 0-.204.032-.216.032-.01.026-.082-.017-.214l-.065-.2-.082-.163c-.023-.046-.06-.105-.116-.184-.055-.076-.1-.132-.133-.165-.03-.03-.08-.087-.147-.164-.065-.076-.11-.126-.132-.148-.11-.132-.363-.407-.76-.827-.398-.417-.684-.743-.86-.974-.177-.232-.425-.552-.744-.96s-.595-.83-.826-1.272c-.23-.44-.458-.926-.678-1.455 2.73-1.59 4.882-3.535 6.446-5.84z"/></svg>