<!DOCTYPE svg PUBLIC "-//W3C//DTD SVG 1.1//EN" "http://www.w3.org/Graphics/SVG/1.1/DTD/svg11.dtd" [
	<!ENTITY ns_flows "http://ns.adobe.com/Flows/1.0/">
]><svg xmlns="http://www.w3.org/2000/svg" width="30" height="30" viewBox="-1 -1 30 30"><path fill="#FFF" d="M.247 27.752c.165.165.38.248.598.248s.433-.083.597-.248L14 15.194l12.557 12.558c.165.165.38.248.598.248.216 0 .433-.083.598-.248.33-.33.33-.865 0-1.195L15.195 14 27.752 1.442c.33-.33.33-.865 0-1.195-.33-.33-.865-.33-1.195 0L14 12.805 1.44.248c-.33-.33-.865-.33-1.195 0-.33.33-.33.865 0 1.194L12.805 14 .247 26.557c-.33.33-.33.865 0 1.195z"/></svg>