<!DOCTYPE svg PUBLIC "-//W3C//DTD SVG 1.1//EN" "http://www.w3.org/Graphics/SVG/1.1/DTD/svg11.dtd" [
	<!ENTITY ns_flows "http://ns.adobe.com/Flows/1.0/">
]><svg xmlns="http://www.w3.org/2000/svg" width="25" height="25" viewBox="-0.784 -0.147 25 25"><path fill="#CBECFA" d="M0 6.05h6.792v4.9H0zM6.792.756C6.792.34 6.452 0 6.037 0H.757C.34 0 0 .34 0 .756V4.6h6.792V.757zM6.792 22.59v-3.845H0v3.845c0 .417.34.756.756.756h5.28c.417 0 .756-.34.756-.756zm-3.396-2.24c.384 0 .697.312.697.696s-.313.697-.697.697-.697-.313-.697-.697.312-.697.696-.697zM0 12.397h6.792v4.9H0zM14.236 9.025L8.616 5.87l-.96 1.714v3.08l4.303 2.418M16.69 4.656c.092-.168.116-.362.063-.548-.05-.186-.173-.34-.342-.434l-4.36-2.45c-.108-.06-.23-.092-.352-.092-.26 0-.502.142-.63.37L9.284 4.68l5.62 3.154 1.786-3.18zM7.655 19.125v1.624l.693-1.235M11.292 14.27l-3.637-2.042v5.335l1.36.763M15.223 9.713l-.852.683-1.88 3.348 3.133 3.907 3.63-2.908-3.976-4.96M23.274 10.595l-3.13-3.903c-.138-.172-.343-.27-.562-.27-.163 0-.323.056-.45.158l-2.847 2.28 4.03 5.03 2.847-2.283c.31-.248.36-.703.112-1.012z"/><path fill="#CBECFA" d="M7.855 22.004v.586c0 .7-.57 1.268-1.27 1.268h-1.04l.463.578c.137.17.342.27.563.27.165 0 .324-.057.452-.158l2.846-2.282-1.27-1.584-.743 1.322zM9.317 19.4l1.614 2.012 3.63-2.908-2.787-3.48"/></svg>