<!DOCTYPE svg PUBLIC "-//W3C//DTD SVG 1.1//EN" "http://www.w3.org/Graphics/SVG/1.1/DTD/svg11.dtd" [
	<!ENTITY ns_flows "http://ns.adobe.com/Flows/1.0/">
]><svg xmlns="http://www.w3.org/2000/svg" width="35" height="35" viewBox="-0.5 -0.5 35 35"><path fill="#FFF" d="M17 0C7.627 0 0 7.626 0 17c0 9.374 7.627 17 17 17s17-7.627 17-17S26.375 0 17 0zm1.21 28.623c-1.578 0-2.858-1.28-2.858-2.857 0-1.575 1.28-2.855 2.857-2.855 1.573 0 2.856 1.28 2.856 2.856 0 1.577-1.283 2.857-2.857 2.857zM17 16.607h-.096v.06c-4.626.053-8.373 3.913-8.373 8.65 0 3.044 1.54 5.807 4.062 7.375C5.552 30.725.696 24.372.696 17 .696 8.01 8.01.695 17 .695c4.288 0 7.775 3.57 7.775 7.956 0 4.387-3.487 7.955-7.774 7.955z"/><path fill="#FFF" d="M18.21 5.722c-1.578 0-2.858 1.28-2.858 2.857 0 1.573 1.28 2.855 2.857 2.855 1.573 0 2.856-1.282 2.856-2.856 0-1.577-1.283-2.858-2.857-2.858z"/></svg>