<!DOCTYPE svg PUBLIC "-//W3C//DTD SVG 1.1//EN" "http://www.w3.org/Graphics/SVG/1.1/DTD/svg11.dtd" [
	<!ENTITY ns_flows "http://ns.adobe.com/Flows/1.0/">
]><svg xmlns="http://www.w3.org/2000/svg" width="75" height="75" viewBox="-0.25 -0.25 75 75"><circle fill="none" stroke="#000" stroke-width="1.5" stroke-miterlimit="10" cx="37.25" cy="37.25" r="36.5"/><path fill="#010101" d="M18.133 57.25c-.236 0-.458-.09-.624-.258-.185-.184-.278-.438-.257-.694.43-5.398 3.038-7.258 5.338-8.897.756-.538 1.447-1.03 2.036-1.62 1.41-1.41 2.074-3.036 2.383-4.152l.08-.288-.212-.212c-.82-.82-1.27-1.91-1.27-3.07s.45-2.25 1.268-3.067c.18-.17 4.655-4.442 6.05-6.05 2.306-2.66 8.26-10.993 8.51-11.347.147-.194.383-.323.637-.34h.01c.29 0 .516.093.678.256l14.23 14.23c.182.182.275.432.258.688-.02.254-.146.49-.35.642-.345.245-8.68 6.2-11.336 8.503-1.61 1.396-5.88 5.87-6.06 6.06-.812.81-1.9 1.262-3.06 1.262-1.162 0-2.25-.452-3.07-1.27l-.21-.28-.29.146c-1.117.31-2.744.976-4.153 2.384-.6.6-1.12 1.33-1.622 2.035-1.64 2.3-3.5 4.908-8.896 5.337l-.07.003zm9.99-21.012c-1.004 1.003-1.004 2.636 0 3.64l.547.546c.203.204.295.495.245.778-.18 1.018-.838 3.622-3.042 5.826-.7.7-1.492 1.264-2.257 1.81-1.872 1.333-3.638 2.594-4.34 5.774l-.172.784.784-.173c3.183-.702 4.44-2.47 5.774-4.34.554-.777 1.116-1.564 1.81-2.257 2.205-2.206 4.808-2.862 5.825-3.042.052-.01.104-.015.154-.015.233 0 .46.095.624.26l.547.545c.487.486 1.133.753 1.822.753.688 0 1.334-.267 1.82-.753l1.2-1.202-10.137-10.137-1.202 1.202zm2.45-2.45l10.14 10.138 3.02-3.02-10.14-10.14-3.02 3.02zm4.188-4.353L45.066 39.74l9.96-7.47-5.773-5.773-3.646 3.646c-.166.167-.39.26-.625.26-.234 0-.456-.093-.622-.26-.167-.167-.26-.39-.26-.624 0-.237.093-.46.26-.625l3.645-3.646-1.6-1.6-5.066 5.07c-.167.166-.39.258-.624.258-.236 0-.46-.092-.625-.26-.345-.343-.345-.903 0-1.248l5.07-5.07-2.93-2.925-7.467 9.96z"/></svg>