<!DOCTYPE svg PUBLIC "-//W3C//DTD SVG 1.1//EN" "http://www.w3.org/Graphics/SVG/1.1/DTD/svg11.dtd" [
	<!ENTITY ns_flows "http://ns.adobe.com/Flows/1.0/">
]><svg xmlns="http://www.w3.org/2000/svg" width="35" height="35" viewBox="-4.075 -1.81 35 35"><path fill="#FFF" d="M25.915 15.07c-.02-.01-.082-.09-.102-.098l-.32-.15 1.225-2.6c.348-.74-.02-1.72-.76-2.07L4.683.133c-.76-.356-1.58.04-1.938.8l-2.59 5.5c-.35.74-.093 1.545.666 1.902l21.277 10.02c.738.35 1.682.108 2.03-.632l.99-2.1.278.13c.166.323.34.626.22.885l-1.51 3.2c-.16.34-.592.38-.933.222L12.004 14.8c-.78-.368-1.658.05-2.026.83l-.263.56-2.597-1.224c-.1-.047-.218-.004-.284.085-.058.072-.055.22.026.308.164.223.605.944.436 1.303L1.67 28.606c-.31.66-.065 1.385.594 1.696l1.997.94c.66.312 1.496.093 1.806-.565L11.7 18.712c.168-.36.945-.508 1.213-.503.1-.003.176-.115.193-.204.018-.09-.036-.236-.115-.274l-2.477-1.167.255-.54c.16-.34.53-.557.85-.406l11.168 5.26c.78.366 1.752.115 2.11-.645l1.506-3.2c.322-.68.085-1.525-.487-1.966zM4.305.933l21.277 10.02c.3.14.487.572.337.892l-.528 1.12c-.402-.7-.777-1.147-1.438-1.457-1.38-.65-3.043-.067-3.703 1.333-.47 1-1.704 1.495-2.763.996s-1.443-1.756-.943-2.816l.094-.2c.547-1.16.05-2.542-1.11-3.088-1.157-.545-2.54-.048-3.086 1.112l-.093.2c-.238.5-.825.712-1.325.476-.5-.235-.71-.823-.475-1.323l.15-.32c.367-.78.04-1.69-.74-2.058-.78-.368-1.69-.04-2.057.74l-.104.22c-.472 1-1.648 1.425-2.647.954-1-.47-1.42-1.647-.95-2.647l.094-.2c.368-.78.04-1.693-.74-2.06-.22-.104-.428-.128-.664-.142l.65-1.38c.15-.32.442-.525.762-.374z"/></svg>