<?xml version="1.0" encoding="utf-8"?>
<!-- Generator: Adobe Illustrator 15.0.0, SVG Export Plug-In  -->
<!DOCTYPE svg PUBLIC "-//W3C//DTD SVG 1.1//EN" "http://www.w3.org/Graphics/SVG/1.1/DTD/svg11.dtd" [
	<!ENTITY ns_flows "http://ns.adobe.com/Flows/1.0/">
]>
<svg version="1.1"
	 xmlns="http://www.w3.org/2000/svg" xmlns:xlink="http://www.w3.org/1999/xlink" xmlns:a="http://ns.adobe.com/AdobeSVGViewerExtensions/3.0/"
	 x="0px" y="0px" width="30px" height="30px" viewBox="-4.278 -0.384 30 30" enable-background="new -4.278 -0.384 30 30"
	 xml:space="preserve">
<defs>
</defs>
<path fill="#38A865" d="M21.234,25.285l-3.403-4.22c-0.283-0.351-0.884-0.629-1.333-0.623l-1.438,0.025
	c-1.232,0.709-3.644,1.756-6.979-4.025c-3.335-5.778-1.225-7.344,0.005-8.056l0.742-1.231C9.06,6.768,9.117,6.109,8.956,5.688
	L7.005,0.631C6.842,0.208,6.346-0.067,5.904,0.014l-2.396,0.44C-1.136,3.138-1.174,11.167,3.424,19.13
	c4.6,7.968,11.571,11.95,16.217,9.269l1.578-1.855C21.512,26.202,21.52,25.632,21.234,25.285z"/>
<path fill="#38A865" d="M13.546,6.264c4.606,1.235,7.351,5.984,6.115,10.592c-0.089,0.33,0.106,0.668,0.438,0.756
	c0.328,0.088,0.668-0.106,0.756-0.438c1.41-5.263-1.725-10.69-6.988-12.103c-0.329-0.087-0.67,0.106-0.757,0.436
	C13.021,5.837,13.218,6.176,13.546,6.264z"/>
<path fill="#38A865" d="M12.908,8.651c3.289,0.878,5.248,4.274,4.367,7.563c-0.09,0.33,0.104,0.668,0.437,0.757
	c0.329,0.088,0.669-0.106,0.756-0.438c1.058-3.949-1.293-8.019-5.24-9.078c-0.331-0.089-0.668,0.107-0.757,0.437
	C12.383,8.225,12.578,8.564,12.908,8.651z"/>
<path fill="#38A865" d="M12.27,11.037c1.974,0.528,3.147,2.565,2.62,4.539c-0.09,0.332,0.105,0.668,0.437,0.755
	c0.328,0.089,0.67-0.105,0.757-0.438c0.705-2.631-0.863-5.346-3.495-6.051c-0.329-0.089-0.668,0.107-0.756,0.436
	C11.744,10.61,11.938,10.949,12.27,11.037z"/>
<path fill="#38A865" d="M11.63,13.423c0.657,0.177,1.05,0.856,0.873,1.513c-0.089,0.333,0.105,0.67,0.436,0.756
	c0.331,0.092,0.67-0.104,0.757-0.435c0.354-1.315-0.431-2.673-1.745-3.025c-0.329-0.088-0.668,0.105-0.756,0.436
	C11.105,12.995,11.301,13.333,11.63,13.423z"/>
</svg>
