<!DOCTYPE svg PUBLIC "-//W3C//DTD SVG 1.1//EN" "http://www.w3.org/Graphics/SVG/1.1/DTD/svg11.dtd" [
	<!ENTITY ns_flows "http://ns.adobe.com/Flows/1.0/">
]><svg xmlns="http://www.w3.org/2000/svg" width="35" height="35" viewBox="-0.5 -0.5 35 35"><path fill="#FFF" d="M17 0C7.573 0 0 7.573 0 17c0 9.428 7.573 17 17 17 9.428 0 17-7.572 17-17 0-9.427-7.572-17-17-17zm9.813 11.668L14.45 24.495c-.155.155-.31.232-.54.232-.233 0-.465-.077-.542-.232l-6.027-6.49-.153-.155c-.155-.154-.232-.386-.232-.54s.077-.387.232-.542l1.082-1.082c.308-.31.77-.31 1.08 0l.078.077 4.25 4.56c.155.154.386.154.54 0l10.355-10.74h.078c.31-.31.772-.31 1.082 0l1.08 1.08c.31.233.31.696 0 1.005z"/></svg>