<!DOCTYPE svg PUBLIC "-//W3C//DTD SVG 1.1//EN" "http://www.w3.org/Graphics/SVG/1.1/DTD/svg11.dtd" [
	<!ENTITY ns_flows "http://ns.adobe.com/Flows/1.0/">
]><svg xmlns="http://www.w3.org/2000/svg" width="60" height="60" viewBox="-0.5 -0.5 60 60"><path fill="#FFF" d="M34.143 31.845l6.405.42c.395-.696.768-1.423 1.096-2.182.327-.756.597-1.523.837-2.294l-4.694-4.37c.16-1.25.18-2.498.067-3.725l4.812-4.222c-.43-1.574-1.032-3.094-1.8-4.532l-6.41.233c-.754-.978-1.624-1.87-2.6-2.666l.418-6.405c-.696-.4-1.427-.767-2.183-1.096-.756-.324-1.522-.597-2.293-.833L23.43 4.875c-1.25-.16-2.496-.18-3.725-.06L15.473 0C13.9.432 12.38 1.036 10.94 1.803l.233 6.398c-.978.757-1.87 1.627-2.666 2.6l-6.405-.416c-.398.7-.767 1.424-1.096 2.183-.324.756-.597 1.523-.833 2.294l4.702 4.37c-.16 1.25-.18 2.498-.06 3.725L0 27.177c.432 1.57 1.036 3.094 1.803 4.536l6.398-.236c.757.977 1.63 1.87 2.604 2.666l-.42 6.405c.7.395 1.423.768 2.183 1.096.756.327 1.523.597 2.294.837l4.37-4.694c1.25.16 2.498.18 3.725.06l4.222 4.82c1.575-.428 3.093-1.033 4.532-1.8l-.232-6.41c.975-.764 1.87-1.638 2.665-2.61zm-17.2-.36c-5.61-2.42-8.196-8.93-5.777-14.542 2.42-5.608 8.927-8.197 14.54-5.778 5.608 2.42 8.194 8.927 5.78 14.54-2.42 5.613-8.93 8.194-14.542 5.78z"/><circle fill="#FFF" cx="21.325" cy="21.325" r="5.531"/><path fill="#FFF" d="M58.922 47.514l.078-1.42-.078-1.423-3.528-1.257-1.526-.54.692-1.466 1.604-3.37c-.59-.738-1.27-1.42-2.01-2.018l-3.377 1.61-1.462.693-.537-1.526-1.253-3.53-1.432-.08-1.427.077-1.254 3.53-.54 1.525-1.467-.693-3.37-1.604c-.74.59-1.42 1.272-2.017 2.01l1.606 3.377.698 1.464-1.527.543-3.528 1.254-.08 1.424.076 1.42 3.53 1.254 1.525.54-.694 1.466-1.603 3.378c.59.737 1.27 1.412 2.01 2.01l3.378-1.605 1.464-.693.543 1.527 1.254 3.53 1.424.08 1.427-.077 1.255-3.53.54-1.525 1.466.694 3.372 1.604c.74-.59 1.42-1.27 2.017-2.01l-1.612-3.378-.693-1.46 1.526-.54 3.532-1.264zM46.094 48.86c-1.527 0-2.766-1.24-2.766-2.767s1.238-2.766 2.766-2.766 2.766 1.238 2.766 2.766-1.24 2.766-2.766 2.766z"/></svg>