<?xml version="1.0" encoding="utf-8"?>
<!-- Generator: Adobe Illustrator 15.0.0, SVG Export Plug-In  -->
<!DOCTYPE svg PUBLIC "-//W3C//DTD SVG 1.1//EN" "http://www.w3.org/Graphics/SVG/1.1/DTD/svg11.dtd" [
	<!ENTITY ns_flows "http://ns.adobe.com/Flows/1.0/">
]>
<svg version="1.1"
	 xmlns="http://www.w3.org/2000/svg" xmlns:xlink="http://www.w3.org/1999/xlink" xmlns:a="http://ns.adobe.com/AdobeSVGViewerExtensions/3.0/"
	 x="0px" y="0px" width="75px" height="75px" viewBox="0 0 75 75" enable-background="new 0 0 75 75" xml:space="preserve">
<defs>
</defs>
<circle fill="none" stroke="#000000" stroke-width="1.5" stroke-miterlimit="10" cx="37.25" cy="37.25" r="36.5"/>
<path display="none" fill="#010101" d="M18.133,57.25c-0.236,0-0.458-0.09-0.624-0.258c-0.185-0.184-0.278-0.438-0.257-0.694
	c0.43-5.397,3.038-7.258,5.338-8.897c0.756-0.537,1.447-1.029,2.036-1.619c1.41-1.41,2.074-3.036,2.383-4.152l0.08-0.288
	l-0.212-0.212c-0.82-0.82-1.27-1.91-1.27-3.07c0-1.16,0.45-2.25,1.268-3.066c0.18-0.17,4.655-4.442,6.05-6.05
	c2.306-2.66,8.261-10.993,8.511-11.347c0.146-0.194,0.383-0.323,0.637-0.34h0.01c0.29,0,0.516,0.093,0.678,0.256l14.23,14.23
	c0.182,0.182,0.275,0.432,0.258,0.688c-0.02,0.254-0.146,0.49-0.35,0.642c-0.346,0.245-8.681,6.201-11.336,8.503
	c-1.61,1.396-5.881,5.869-6.061,6.06c-0.813,0.81-1.9,1.263-3.06,1.263c-1.162,0-2.25-0.453-3.07-1.271l-0.21-0.28l-0.29,0.146
	c-1.117,0.311-2.744,0.977-4.153,2.384c-0.6,0.601-1.12,1.33-1.622,2.035c-1.64,2.3-3.5,4.907-8.896,5.337l-0.07,0.003L18.133,57.25
	z M28.123,36.238c-1.004,1.003-1.004,2.636,0,3.64l0.547,0.546c0.203,0.204,0.295,0.495,0.245,0.778
	c-0.18,1.019-0.838,3.622-3.042,5.825c-0.7,0.701-1.492,1.265-2.257,1.811c-1.872,1.333-3.638,2.594-4.34,5.773l-0.172,0.785
	l0.784-0.174c3.183-0.701,4.44-2.47,5.774-4.34c0.554-0.777,1.116-1.564,1.81-2.257c2.205-2.206,4.808-2.862,5.825-3.042
	c0.052-0.01,0.104-0.016,0.154-0.016c0.233,0,0.46,0.096,0.624,0.261l0.547,0.545c0.487,0.485,1.133,0.753,1.822,0.753
	c0.688,0,1.334-0.268,1.82-0.753l1.2-1.202L29.327,35.035l-1.202,1.202L28.123,36.238z M30.573,33.788l10.14,10.138l3.02-3.02
	l-10.14-10.14l-3.02,3.02V33.788z M34.761,29.435L45.066,39.74l9.959-7.47l-5.772-5.773l-3.646,3.646
	c-0.166,0.167-0.391,0.26-0.625,0.26s-0.457-0.093-0.623-0.26s-0.26-0.39-0.26-0.624c0-0.237,0.094-0.46,0.26-0.625l3.646-3.646
	l-1.601-1.6l-5.065,5.07c-0.167,0.166-0.39,0.258-0.624,0.258c-0.236,0-0.46-0.092-0.625-0.26c-0.345-0.343-0.345-0.903,0-1.248
	l5.07-5.07l-2.93-2.925l-7.467,9.96L34.761,29.435z"/>
<path fill="#010002" d="M20.886,51.996c0.025,0,0.048-0.005,0.07-0.013l26.095-8.815c0.94-0.351,2.261-1.34,2.948-2.208l7.158-10.66
	c0.672-0.849-2.519-7.796-3.545-7.796c-0.024,0-0.047,0.005-0.07,0.013l-0.261,0.098c-0.034-0.007-0.069-0.016-0.104-0.016
	c-0.064,0-0.131,0.012-0.198,0.037l-25.055,9.354c-0.94,0.351-2.26,1.339-2.948,2.208l-7.213,9.104
	c-0.144,0.18-0.22,0.422-0.248,0.687L17.342,44.2C16.67,45.049,19.86,51.996,20.886,51.996z M45.911,32.35
	c-1.177-0.147-2.553,0.422-3.269,1.728c-0.254,0.464,0.277,0.378,0.975,0.488c-0.182,0.108-0.346,0.192-0.479,0.242l-6.285,2.346
	c0.046-0.563-0.077-1.021-0.776-0.875c-1.639,0.343-2.718,1.446-3.318,2.404l-3.701,1.382c-0.115-0.33-0.6-0.338-0.954-0.291
	c-2.462,0.32-3.342,1.115-3.58,1.983l-3.711,1.386l6.32-7.803c0.495-0.626,1.536-1.369,2.066-1.567l10.89-4.065
	c0.147,0.578,0.398,0.757,1.206,0.46c0.817-0.301,2.027-1.023,2.834-1.969l7.201-2.688L45.911,32.35z M19.767,45.701
	c0.037,0.141,0.092,0.28,0.171,0.41c0.35,0.579,0.981,0.771,1.41,0.43c0.391-0.313,0.474-0.961,0.219-1.512l3.207-1.196
	c0.49,0.958,1.631,1.12,2.14,0.907c0.378-0.16,0.654-1.129,1.022-2.088l4.769-1.78c0.807,0.805,2.361,1.914,3.388,1.548
	c1.073-0.383,0.873-2.078,0.673-3.064l7.083-2.645c0.477-0.178,1.051-0.521,1.59-0.928c1.005,1.388,2.248,2.054,2.857,1.479
	c0.635-0.598,0.342-2.301-0.645-3.838l6-7.572c0.658,1.275,1.342,2.913,1.522,3.759l-0.465,0.691
	c0.011-0.408-0.106-0.85-0.357-1.221c-0.481-0.71-1.259-0.887-1.737-0.396c-0.479,0.492-0.478,1.467,0.003,2.177
	c0.347,0.513,0.849,0.742,1.28,0.648l-5.533,8.24c-0.504,0.605-1.479,1.301-2,1.504l-2.731,0.924
	c-0.54-1.362-1.839-2.081-3.12-1.629c-1.259,0.443-2.078,1.871-2.018,3.365l-11.556,3.902c0.07-0.398,0.009-0.883-0.209-1.336
	c-0.389-0.811-1.112-1.202-1.614-0.875c-0.502,0.326-0.594,1.246-0.206,2.057c0.133,0.279,0.308,0.504,0.499,0.671l-3.983,1.345
	c-0.605-0.967-1.403-2.683-1.834-3.913L19.767,45.701z"/>
<path fill="#010002" d="M38.531,31.917c-1.778,0.677-3.076,1.838-2.9,2.593c0.176,0.755,1.76,0.817,3.537,0.141
	s3.076-1.839,2.9-2.593C41.893,31.303,40.309,31.24,38.531,31.917z"/>
<path fill="#010002" d="M26.73,37.355c-0.969,0.427-1.647,1.203-1.514,1.732c0.133,0.531,1.025,0.615,1.994,0.188
	c0.969-0.426,1.646-1.202,1.514-1.732C28.592,37.013,27.699,36.929,26.73,37.355z"/>
<path fill="#010002" d="M48.651,28.273c-0.117-0.499-1.135-0.549-2.274-0.111c-1.139,0.438-1.967,1.197-1.85,1.696
	s1.135,0.549,2.273,0.111C47.94,29.532,48.769,28.773,48.651,28.273z"/>
<path fill="#010002" d="M31.927,33.845c-1.368,0.521-2.367,1.415-2.231,1.997c0.136,0.581,1.354,0.63,2.723,0.108
	c1.369-0.521,2.367-1.415,2.231-1.996C34.513,33.372,33.294,33.323,31.927,33.845z"/>
</svg>
