<!DOCTYPE svg PUBLIC "-//W3C//DTD SVG 1.1//EN" "http://www.w3.org/Graphics/SVG/1.1/DTD/svg11.dtd" [
	<!ENTITY ns_flows "http://ns.adobe.com/Flows/1.0/">
]><svg xmlns="http://www.w3.org/2000/svg" width="60" height="60" viewBox="-0.481 -1.874 60 60"><path fill="#FFF" d="M30.5 19.407l5.45 5.454-10.96 10.962-5.453-5.453L30.5 19.406zm28.538 3.604c0 2.04-1.65 3.69-3.688 3.69h-2.505v25.863c0 2.037-1.652 3.688-3.69 3.688H9.86c-2.038 0-3.688-1.65-3.688-3.687V26.7H3.69c-1.59 0-3-1.016-3.5-2.523-.502-1.507.018-3.167 1.29-4.118l4.69-3.512V6.774c0-2.038 1.652-3.688 3.69-3.688h3.408c2.038 0 3.69 1.65 3.69 3.688v1.698L27.293.735c1.312-.98 3.11-.98 4.42 0L57.28 19.87c1.056.648 1.758 1.813 1.758 3.14zM22.543 45.084c0-2.488-4.504-10.098-4.504-10.098s-4.503 7.61-4.503 10.098c0 2.485 2.016 4.503 4.502 4.503 2.486 0 4.503-2.018 4.503-4.503zm24.28-5.61l-6.068-6.066v-.002c2.387-2.385 2.387-6.264 0-8.65l-9.03-9.03c-.68-.68-1.78-.68-2.456 0L15.85 29.14c-.68.678-.678 1.777 0 2.455l9.032 9.032c2.385 2.384 6.267 2.384 8.65 0l6.066 6.065c1.99 1.99 5.23 1.99 7.224 0 1.992-1.993 1.992-5.233 0-7.222z"/></svg>