!DOCTYPE svg PUBLIC "-//W3C//DTD SVG 1.1//EN" "http://www.w3.org/Graphics/SVG/1.1/DTD/svg11.dtd" [
	<!ENTITY ns_flows "http://ns.adobe.com/Flows/1.0/">
]><svg xmlns="http://www.w3.org/2000/svg" width="75" height="75" viewBox="-0.25 -0.25 75 75"><circle fill="none" stroke="#000" stroke-width="1.5" stroke-miterlimit="10" cx="37.25" cy="37.25" r="36.5"/><path fill="#010101" d="M55.088 29.304l-.042-.016.26-.687c.528-1.402-.18-2.975-1.584-3.504l-23.27-8.776c-1.405-.53-2.977.183-3.506 1.586l-.26.687-.04-.016c-1.047-.395-2.22.137-2.615 1.184l-.258.69-.04-.016c-1.403-.53-2.976.182-3.505 1.587l-1.95 5.174c-.53 1.405.18 2.976 1.584 3.505l14.222 5.362c.735.277 1.106 1.1.83 1.836l-.504 1.333-.686-.258c-1.047-.395-2.22.136-2.615 1.183l-5.122 13.582c-.664 1.76.228 3.732 1.99 4.396 1.757.663 3.73-.23 4.395-1.988l5.122-13.582c.395-1.048-.138-2.22-1.185-2.616l-.688-.26.502-1.333c.53-1.403-.18-2.975-1.584-3.504l-14.22-5.363c-.736-.277-1.11-1.103-.832-1.837l1.95-5.173c.278-.736 1.103-1.108 1.838-.83l.04.014-.26.688c-.394 1.047.136 2.22 1.184 2.616l.04.016-.258.687c-.53 1.404.182 2.976 1.585 3.505l23.27 8.775c1.404.53 2.976-.183 3.504-1.587l.26-.687.04.016c1.048.394 2.22-.138 2.615-1.185l.976-2.587c.394-1.046-.135-2.22-1.182-2.614zM28.43 56.924c-1.093-.413-1.646-1.636-1.233-2.73l4.405-11.68 3.957 1.49-4.406 11.684c-.412 1.092-1.633 1.646-2.724 1.235zm7.846-14.818l-.26.688-3.957-1.492.258-.688c.143-.378.567-.57.945-.428l2.585.975c.38.145.57.57.428.946zm-11.58-18.354c-.38-.143-.57-.567-.428-.946l.976-2.587c.143-.38.567-.572.945-.43l.04.016-1.493 3.96-.042-.014zm26.472 12.152c-.277.736-1.102 1.108-1.836.832l-23.27-8.775c-.736-.276-1.11-1.1-.832-1.836l2.926-7.76c.277-.735 1.102-1.107 1.837-.83l23.27 8.775c.734.275 1.107 1.1.83 1.834l-2.925 7.76zm2.915-1.855c-.143.378-.568.57-.946.427l-.042-.016 1.494-3.96.04.016c.38.143.57.567.43.946l-.977 2.587z"/><path fill="#010101" d="M29.406 54.335c-.162-.062-.34-.055-.497.017-.157.07-.28.2-.34.36-.06.16-.054.34.017.495.07.156.202.28.362.34.157.06.338.055.494-.017.155-.07.278-.202.337-.36.062-.16.057-.34-.014-.496-.07-.155-.202-.28-.36-.34z"/></svg>