<svg xmlns="http://www.w3.org/2000/svg" xmlns:xlink="http://www.w3.org/1999/xlink" width="176" height="11" viewBox="0 0 176 11"><defs><path id="a" d="M.284.73h175.45V11H.283z"/></defs><clipPath id="b"><use xlink:href="#a" overflow="visible"/></clipPath><path clip-path="url(#b)" fill="#FFF" d="M3.608 8.945c.253 0 .506-.198.62-.505l1.98-5.272c.104-.28.03-.504-.186-.504H5.14c-.255 0-.52.2-.62.504l-1.25 3.57-1.25-3.57c-.103-.303-.365-.503-.618-.503H.518c-.218 0-.292.223-.188.504L2.31 8.44c.113.306.367.505.62.505l.678-.002z"/><defs><path id="c" d="M.284.73h175.45V11H.283z"/></defs><clipPath id="d"><use xlink:href="#c" overflow="visible"/></clipPath><path clip-path="url(#d)" fill="#FFF" d="M7.574.765c-.16 0-.28.152-.28.35v5.438c0 .2.12.353.28.353H8.6c.16 0 .28-.152.28-.353V1.116c0-.2-.122-.35-.28-.35H7.574z"/><defs><path id="e" d="M.284.73h175.45V11H.283z"/></defs><clipPath id="f"><use xlink:href="#e" overflow="visible"/></clipPath><path clip-path="url(#f)" fill="#7AC143" d="M8.9 8.242c0-.41-.198-.654-.526-.654H7.8c-.33 0-.526.244-.526.654v.2c0 .41.195.658.525.658h.572c.328 0 .526-.247.526-.658l.002-.2z"/><defs><path id="g" d="M.284.73h175.45V11H.283z"/></defs><clipPath id="h"><use xlink:href="#g" overflow="visible"/></clipPath><path clip-path="url(#h)" fill="#FFF" d="M14.322 2.9c0-.2-.12-.353-.282-.353-1.033 0-1.51.352-2.037.835v-.364c0-.2-.122-.353-.282-.353h-1.023c-.16 0-.28.153-.28.353v5.578c0 .198.12.35.28.35h1.024c.16 0 .283-.15.283-.35V4.932c.338-.505.713-.845 1.183-.845.244 0 .49.035.705.035h.15c.16 0 .282-.152.282-.352V2.9z"/><defs><path id="i" d="M.284.73h175.45V11H.283z"/></defs><clipPath id="j"><use xlink:href="#i" overflow="visible"/></clipPath><path clip-path="url(#j)" fill="#FFF" d="M18.55 8.945c.158-.035.28-.175.28-.35V7.98c0-.2-.122-.35-.28-.35h-.17c-.208 0-.384.07-.63.07-.476 0-.806-.422-.806-1.22V4.38h1.278c.158 0 .28-.153.28-.353v-.68c0-.2-.122-.354-.28-.354h-1.278V1.08c0-.2-.122-.352-.282-.352h-1.025c-.157 0-.28.152-.28.352v5.402c0 1.758.658 2.58 1.973 2.58.42 0 .937-.046 1.22-.117"/><g><defs><path id="k" d="M.284.73h175.45V11H.283z"/></defs><clipPath id="l"><use xlink:href="#k" overflow="visible"/></clipPath><path clip-path="url(#l)" fill="#FFF" d="M21.45 3.018c0-.2-.12-.354-.28-.354h-1.025c-.158 0-.28.153-.28.354v3.287c0 1.948.863 2.76 2.085 2.76.705 0 1.173-.377 1.605-.834v.364c0 .2.123.352.28.352h1.025c.16 0 .284-.152.284-.352V3.018c0-.2-.123-.354-.284-.354h-1.024c-.158 0-.28.153-.28.354v3.84c-.34.423-.772.82-1.232.82-.516 0-.873-.397-.873-1.374V3.018z"/></g><g><defs><path id="m" d="M.284.73h175.45V11H.283z"/></defs><clipPath id="n"><use xlink:href="#m" overflow="visible"/></clipPath><path clip-path="url(#n)" fill="#FFF" d="M31.415 7.21c0-2.397-3.465-1.834-3.465-2.806 0-.33.263-.553.91-.553.404 0 .75.142.91.39.125.187.293.304.527.304h.687c.16 0 .282-.152.282-.352 0-1.22-.977-1.643-2.516-1.643-1.325 0-2.385.527-2.385 1.854 0 2.37 3.463 1.83 3.463 2.806 0 .327-.262.55-1.05.55-.405 0-.75-.14-.912-.386-.123-.188-.292-.306-.526-.306h-.685c-.158 0-.283.153-.283.353 0 1.22.978 1.643 2.518 1.643 1.464 0 2.525-.527 2.525-1.853"/></g><g><defs><path id="o" d="M.284.73h175.45V11H.283z"/></defs><clipPath id="p"><use xlink:href="#o" overflow="visible"/></clipPath><path clip-path="url(#p)" fill="#FFF" d="M41.387 8.594V1.08c0-.2-.12-.352-.28-.352h-1.023c-.162 0-.282.152-.282.352v1.762c-.385-.152-.76-.294-1.325-.294-1.465 0-2.46 1.103-2.46 3.264 0 2.148.988 3.253 2.32 3.253.666 0 1.183-.272 1.606-.646v.174c0 .198.122.352.282.352h.883c.16 0 .28-.154.28-.352M39.8 7.162c-.33.26-.75.517-1.09.517-.75 0-1.062-.576-1.062-1.87 0-1.302.31-1.877 1.156-1.877.237 0 .61.082.996.235v2.994z"/></g><g><defs><path id="q" d="M.284.73h175.45V11H.283z"/></defs><clipPath id="r"><use xlink:href="#q" overflow="visible"/></clipPath><path clip-path="url(#r)" fill="#FFF" d="M44.216 8.945c.16 0 .28-.153.28-.352V3.158c0-.2-.12-.35-.28-.35h-1.023c-.16 0-.283.15-.283.35v5.436c0 .198.123.352.283.352h1.023z"/></g><g><defs><path id="s" d="M.284.73h175.45V11H.283z"/></defs><clipPath id="t"><use xlink:href="#s" overflow="visible"/></clipPath><path clip-path="url(#t)" fill="#FFF" d="M50.104 4.404c.198-.248.328-.448.328-.835v-.552c0-.2-.123-.353-.283-.353h-4.18c-.16 0-.28.152-.28.353v.68c0 .2.12.353.28.353h2.46l-2.413 3.16c-.197.246-.33.447-.33.832v.552c0 .198.123.352.283.352h4.217c.16 0 .28-.153.28-.352v-.68c0-.202-.122-.353-.28-.353h-2.584l2.5-3.156z"/></g><g><defs><path id="u" d="M.284.73h175.45V11H.283z"/></defs><clipPath id="v"><use xlink:href="#u" overflow="visible"/></clipPath><path clip-path="url(#v)" fill="#FFF" d="M56.64 8.594V5.048c0-1.796-1.062-2.5-2.413-2.5-1.522 0-2.5.422-2.5 1.644 0 .2.124.353.283.353h.686c.235 0 .405-.118.526-.306.16-.248.507-.388.893-.388.63 0 .94.282.94 1.198h-1.522c-1.23 0-2.17.67-2.17 1.998 0 1.325.94 2.017 2.17 2.017.723 0 1.24-.27 1.663-.644v.176c0 .198.12.352.28.352h.884c.158-.003.28-.156.28-.354m-1.587-1.35c-.33.258-.8.516-1.362.516-.486 0-.74-.305-.74-.714 0-.388.254-.694.695-.694h1.408v.893z"/></g><g><defs><path id="w" d="M.284.73h175.45V11H.283z"/></defs><clipPath id="x"><use xlink:href="#w" overflow="visible"/></clipPath><path clip-path="url(#x)" fill="#FFF" d="M59.824 3.158c0-.198-.122-.353-.282-.353h-1.024c-.157 0-.28.154-.28.353V8.3c0 1.034-.33 1.34-.612 1.34-.18 0-.3-.083-.468-.083h-.14c-.16 0-.283.15-.283.35v.623c0 .177.122.306.282.354.28.08.75.116 1.033.116 1.118 0 1.774-.82 1.774-2.7V3.16z"/></g><g><defs><path id="y" d="M.284.73h175.45V11H.283z"/></defs><clipPath id="z"><use xlink:href="#y" overflow="visible"/></clipPath><path clip-path="url(#z)" fill="#FFF" d="M65.036 8.594c0 .198.123.352.28.352h1.024c.16 0 .282-.153.282-.352v-3.29c0-1.947-.863-2.757-2.085-2.757-.705 0-1.173.376-1.604.835v-.364c0-.202-.124-.353-.283-.353h-1.023c-.16 0-.283.15-.283.353v5.576c0 .198.122.352.283.352h1.023c.16 0 .283-.153.283-.352v-3.84c.336-.42.768-.82 1.227-.82.518 0 .876.398.876 1.37v3.29z"/></g><g><defs><path id="A" d="M.284.73h175.45V11H.283z"/></defs><clipPath id="B"><use xlink:href="#A" overflow="visible"/></clipPath><path clip-path="url(#B)" fill="#FFF" d="M75.35 3.292c.025-.025.054-.037.09-.037h.64c.032 0 .06.012.086.037.024.023.035.052.035.086V8.98c0 .033-.01.062-.034.085-.025.025-.054.037-.087.037h-.64c-.037 0-.065-.012-.09-.037-.025-.023-.036-.052-.036-.085V3.378c0-.034.01-.063.036-.086m4.584 5.688c0 .033-.016.062-.04.085-.024.025-.053.037-.084.037h-.64c-.035 0-.064-.012-.087-.037-.026-.023-.038-.052-.038-.085V3.378c0-.034.012-.063.038-.086.023-.025.053-.037.086-.037h.623c.012 0 .03.005.054.02.023.014.038.025.043.037l2.67 4.052V3.378c0-.034.012-.063.038-.086.024-.025.054-.037.086-.037h.643c.032 0 .06.012.084.037.026.023.038.052.038.086V8.98c0 .033-.01.062-.037.085-.022.025-.05.037-.083.037H82.7c-.01 0-.028-.006-.054-.02-.024-.016-.04-.025-.045-.038l-2.666-4.058V8.98zm8.298.086c-.023.024-.05.037-.085.037h-.642c-.033 0-.06-.013-.084-.037-.023-.023-.035-.053-.035-.086V4.05h-1.487c-.035 0-.062-.012-.09-.037-.023-.025-.034-.052-.034-.087v-.548c0-.034.01-.063.035-.086.026-.025.053-.037.088-.037h3.86c.033 0 .062.012.086.037.024.023.036.052.036.086v.548c0 .036-.012.063-.036.087s-.053.037-.087.037H88.27v4.93c0 .034-.01.062-.038.086m4.01-5.774c.025-.025.055-.037.086-.037h3.493c.032 0 .06.012.086.037.024.023.035.052.035.086v.548c0 .036-.01.063-.034.087-.025.025-.054.037-.085.037h-2.73v1.71h2.312c.032 0 .062.013.086.038.024.024.036.052.036.085v.543c0 .03-.012.062-.036.084-.024.026-.054.038-.086.038h-2.31v1.76h2.73c.03 0 .06.01.084.035.024.023.035.054.035.086v.55c0 .034-.01.062-.034.085-.025.024-.054.038-.085.038H92.33c-.03 0-.06-.014-.085-.038-.025-.023-.04-.05-.04-.086V3.377c0-.034.015-.063.04-.086m7.12 3.35v2.34c0 .032-.014.06-.038.084-.024.025-.052.037-.086.037h-.642c-.032 0-.063-.012-.087-.037-.024-.023-.035-.052-.035-.085V3.38c0-.034.01-.063.036-.086.025-.025.056-.037.088-.037h2.144c.28 0 .53.042.753.127.22.084.413.202.57.353.16.15.28.332.365.542.085.21.13.44.13.687 0 .393-.107.72-.312.977-.21.258-.494.45-.855.578l1.257 2.405c.027.05.03.09.01.127-.024.036-.064.053-.125.053h-.755c-.012 0-.03-.008-.058-.023-.026-.02-.043-.03-.052-.042l-1.2-2.398h-1.105zm0-.76h1.314c.295 0 .536-.08.72-.24.184-.158.273-.38.273-.672 0-.29-.09-.515-.274-.677-.183-.16-.424-.242-.72-.242h-1.312v1.832zm6.696 3.098c0 .033-.013.062-.037.085-.024.025-.054.037-.088.037h-.64c-.033 0-.062-.012-.084-.037-.027-.023-.04-.052-.04-.085V3.378c0-.034.013-.063.04-.086.023-.025.052-.037.084-.037h.626c.01 0 .028.005.053.02.025.014.04.026.046.038l2.67 4.052V3.378c0-.034.01-.063.036-.086.026-.025.053-.037.085-.037h.644c.03 0 .063.012.086.037.024.023.037.052.037.086V8.98c0 .033-.013.062-.037.085-.023.025-.056.037-.086.037h-.626c-.01 0-.027-.006-.052-.02-.023-.013-.04-.025-.047-.038l-2.67-4.058V8.98zm6.396-5.688c.023-.025.052-.037.085-.037h3.494c.03 0 .062.012.086.037.024.023.038.052.038.086v.548c0 .036-.014.063-.038.087s-.056.037-.086.037h-2.728v1.71h2.31c.03 0 .06.013.085.038.024.024.038.052.038.085v.543c0 .03-.014.062-.037.084-.024.026-.054.038-.084.038h-2.31v1.76h2.728c.03 0 .062.01.086.035.024.023.038.054.038.086v.55c0 .034-.014.062-.038.085-.024.024-.056.038-.086.038h-3.493c-.032 0-.06-.014-.084-.038-.025-.023-.036-.05-.036-.086V3.377c0-.034.01-.063.036-.086m8.174 5.774c-.023.024-.055.037-.085.037h-.64c-.033 0-.064-.013-.09-.037-.022-.023-.035-.053-.035-.086V4.05h-1.488c-.03 0-.06-.012-.084-.037-.023-.025-.037-.052-.037-.087v-.548c0-.034.015-.063.038-.086.025-.025.054-.037.084-.037h3.863c.032 0 .062.012.085.037.022.023.038.052.038.086v.548c0 .036-.016.063-.038.087-.023.025-.053.037-.085.037h-1.485v4.93c0 .034-.016.062-.04.086m8.145-2.425v2.34c0 .034-.01.063-.035.086-.024.025-.055.037-.087.037h-.64c-.033 0-.064-.012-.088-.037-.022-.023-.037-.052-.037-.085V3.38c0-.034.015-.063.037-.086.024-.025.055-.037.087-.037h2.144c.28 0 .532.042.752.127.223.084.412.202.57.353.16.15.28.332.365.542.086.21.13.44.13.687 0 .393-.107.72-.313.977-.21.258-.495.45-.856.578l1.26 2.405c.025.05.03.09.008.127-.023.036-.063.053-.123.053h-.758c-.013 0-.03-.008-.058-.023-.027-.02-.045-.03-.05-.042l-1.197-2.398h-1.112zm0-.758h1.315c.296 0 .536-.08.72-.24.182-.158.274-.38.274-.672 0-.29-.09-.515-.275-.677-.184-.16-.424-.242-.72-.242h-1.315v1.832zm5.244 2.61c.037-.08.093-.158.166-.23.074-.072.15-.132.236-.173.082-.042.143-.043.18-.004.094.075.194.14.305.19s.256.08.443.08c.33 0 .587-.1.777-.297.188-.2.284-.487.284-.87V3.377c0-.034.012-.063.037-.086.023-.025.05-.037.086-.037h.64c.033 0 .062.012.086.037.024.023.035.052.035.086v3.877c0 .303-.048.57-.15.81-.1.24-.238.437-.42.595-.177.16-.383.28-.616.36-.238.084-.492.126-.76.126-.28 0-.52-.04-.73-.108-.21-.07-.406-.19-.593-.36-.046-.044-.048-.108-.008-.186m6.074-5.2c.025-.025.053-.037.087-.037h3.493c.032 0 .06.012.085.037.025.023.038.052.038.086v.548c0 .036-.013.063-.038.087-.024.025-.053.037-.085.037h-2.73v1.71h2.31c.033 0 .063.013.086.038.023.024.038.052.038.085v.543c0 .03-.015.062-.04.084-.022.026-.052.038-.085.038h-2.31v1.76h2.73c.032 0 .06.01.085.035.025.023.038.054.038.086v.55c0 .034-.013.062-.038.085-.024.024-.053.038-.085.038h-3.492c-.033 0-.06-.014-.086-.038-.023-.023-.036-.05-.036-.086V3.377c0-.034.012-.063.036-.086m7.523-.622c-.023-.01-.04-.02-.05-.033l-.855-1.076c-.043-.048-.055-.093-.033-.134s.062-.062.122-.062h.386c.012 0 .028.005.05.017.02.013.04.02.042.026l.68.754.683-.754c.007-.005.02-.014.04-.025.022-.01.04-.016.05-.016h.387c.06 0 .103.02.125.062.02.04.01.086-.035.135l-.853 1.077c-.013.012-.028.022-.05.033-.02.012-.038.017-.05.017h-.59c-.013 0-.027-.005-.05-.017m-1.723 5.615c.043-.08.1-.155.174-.23.075-.072.15-.13.234-.172.08-.042.144-.043.182-.005.202.182.42.308.648.375.23.068.485.104.765.104.384 0 .678-.08.89-.233.212-.158.315-.377.315-.66 0-.22-.044-.388-.133-.503-.094-.114-.21-.2-.355-.258-.146-.057-.313-.098-.503-.118-.188-.022-.382-.05-.582-.083-.2-.032-.393-.08-.582-.147-.188-.066-.36-.17-.513-.313-.286-.268-.43-.642-.43-1.118 0-.257.046-.49.138-.7.09-.206.218-.386.384-.54.168-.154.372-.272.617-.355.244-.082.516-.124.817-.124.36 0 .678.046.95.138.27.09.525.237.767.44.046.037.05.096.014.172-.036.076-.088.15-.154.222-.07.07-.144.127-.223.168-.08.04-.142.044-.186.01-.175-.14-.36-.24-.554-.295-.193-.055-.405-.08-.637-.08-.347 0-.61.083-.793.257-.183.172-.275.39-.275.653 0 .196.048.348.136.457.09.105.21.188.36.245.152.057.32.1.512.13.188.032.38.06.572.095.196.032.385.08.572.14.188.06.35.153.484.28.16.143.278.314.358.52.078.2.12.428.12.68 0 .267-.053.508-.157.722-.102.214-.25.395-.436.542-.187.146-.41.258-.666.33-.258.075-.54.113-.846.113-.417 0-.783-.05-1.097-.148-.314-.1-.61-.274-.883-.525-.042-.043-.045-.105-.003-.185m6.63-4.993c.024-.025.053-.037.087-.037h3.49c.034 0 .062.012.088.037.022.023.037.052.037.086v.548c0 .036-.015.063-.037.087-.026.025-.054.037-.09.037h-2.726v1.71h2.31c.032 0 .063.013.084.038.026.024.04.052.04.085v.543c0 .03-.014.062-.04.084-.02.026-.052.038-.084.038h-2.31v1.76h2.727c.034 0 .062.01.088.035.022.023.037.054.037.086v.55c0 .034-.015.062-.037.085-.026.024-.054.038-.09.038h-3.487c-.033 0-.062-.014-.087-.038-.024-.023-.037-.05-.037-.086V3.377c0-.034.013-.063.037-.086m7.12 5.688c0 .033-.012.062-.038.085-.023.025-.053.037-.084.037h-.64c-.034 0-.06-.012-.086-.037-.025-.023-.037-.052-.037-.085V3.378c0-.034.012-.063.037-.086.025-.025.052-.037.085-.037h.623c.013 0 .03.005.054.02.023.014.04.026.045.038l2.67 4.052V3.378c0-.034.012-.063.036-.086.026-.025.056-.037.086-.037h.642c.032 0 .062.012.088.037.022.023.038.052.038.086V8.98c0 .033-.016.062-.038.085-.026.025-.056.037-.088.037h-.624c-.01 0-.03-.006-.054-.02-.022-.016-.04-.025-.044-.038l-2.67-4.058V8.98zm5.793-.488c.04-.08.093-.158.168-.23.074-.072.152-.132.234-.173.083-.042.142-.043.18-.004.096.075.196.14.305.19.11.052.26.08.444.08.333 0 .587-.1.778-.297.188-.2.28-.487.28-.87V3.377c0-.034.015-.063.038-.086.025-.025.053-.037.085-.037h.64c.035 0 .064.012.086.037.027.023.04.052.04.086v3.877c0 .303-.05.57-.155.81-.1.24-.237.437-.418.595-.176.16-.382.28-.618.36-.235.084-.486.126-.757.126-.277 0-.523-.04-.73-.108-.21-.07-.407-.19-.593-.36-.045-.044-.046-.108-.008-.186m6.687-.563l-.38 1.09c-.006.02-.02.034-.042.056-.025.02-.05.027-.07.027h-.684c-.048 0-.085-.017-.106-.05-.022-.032-.022-.07-.008-.114l2.054-5.605c.014-.015.028-.033.054-.052.024-.02.045-.027.062-.027h.55c.016 0 .037.008.06.027.027.02.044.037.057.052l2.052 5.604c.017.044.016.08-.01.114-.02.03-.055.05-.105.05h-.682c-.022 0-.047-.01-.07-.028-.022-.02-.04-.038-.047-.055l-.377-1.09h-2.307zm2.062-.756l-.885-2.598-.916 2.598h1.8z"/></g></svg>