<!DOCTYPE svg PUBLIC "-//W3C//DTD SVG 1.1//EN" "http://www.w3.org/Graphics/SVG/1.1/DTD/svg11.dtd" [
	<!ENTITY ns_flows "http://ns.adobe.com/Flows/1.0/">
]><svg xmlns="http://www.w3.org/2000/svg" width="24" height="24" viewBox="-0.818 -0.418 24 24"><path fill="#FFF" d="M22.023 21.097l-5.513-5.732c1.417-1.686 2.193-3.805 2.193-6.013C18.703 4.196 14.51 0 9.353 0 4.196 0 0 4.196 0 9.352c0 5.157 4.196 9.353 9.353 9.353 1.936 0 3.78-.584 5.357-1.69l5.556 5.774c.23.24.544.374.878.374.316 0 .617-.12.846-.34.485-.467.5-1.24.033-1.727zM9.353 2.44c3.81 0 6.912 3.1 6.912 6.912s-3.102 6.91-6.912 6.91c-3.812 0-6.913-3.1-6.913-6.91S5.54 2.44 9.353 2.44z"/></svg>