<?xml version="1.0" encoding="utf-8"?>
<!-- Generator: Adobe Illustrator 15.0.0, SVG Export Plug-In  -->
<!DOCTYPE svg PUBLIC "-//W3C//DTD SVG 1.1//EN" "http://www.w3.org/Graphics/SVG/1.1/DTD/svg11.dtd" [
	<!ENTITY ns_flows "http://ns.adobe.com/Flows/1.0/">
]>
<svg version="1.1"
	 xmlns="http://www.w3.org/2000/svg" xmlns:xlink="http://www.w3.org/1999/xlink" xmlns:a="http://ns.adobe.com/AdobeSVGViewerExtensions/3.0/"
	 x="0px" y="0px" width="60px" height="60px" viewBox="0 0 60 60" enable-background="new 0 0 60 60" xml:space="preserve">
<defs>
</defs>
<path fill="#0898D6" d="M57.516,54.62L40.175,37.277c3.323-3.963,5.341-9.037,5.341-14.521C45.516,10.345,35.173,0,22.76,0
	C10.343,0,0,10.344,0,22.76c0,12.41,10.344,22.756,22.76,22.756c5.377,0,10.36-1.943,14.29-5.154l17.156,17.154
	c0.415,0.414,0.83,0.414,1.655,0.414c0.828,0,1.24,0,1.654-0.414C58.346,56.688,58.346,55.448,57.516,54.62L57.516,54.62z
	 M22.76,41.378c-10.347,0-18.622-8.274-18.622-18.62c0-10.344,8.275-18.62,18.62-18.62c10.344,0,18.62,8.276,18.62,18.62
	c0,10.346-8.276,18.62-18.62,18.62H22.76z"/>
<path fill="#0898D6" d="M28.965,20.69h-4.138v-4.138c0-1.24-0.828-2.07-2.07-2.07c-1.24,0-2.068,0.827-2.068,2.07v4.138h-4.14
	c-1.242,0-2.07,0.828-2.07,2.07c0,1.24,0.83,2.068,2.07,2.068h4.14v4.138c0,1.242,0.826,2.07,2.068,2.07
	c1.24,0,2.07-0.828,2.07-2.07v-4.138h4.137c1.24,0,2.07-0.828,2.07-2.07C31.034,21.518,30.204,20.69,28.965,20.69L28.965,20.69z"/>
</svg>
