<!DOCTYPE svg PUBLIC "-//W3C//DTD SVG 1.1//EN" "http://www.w3.org/Graphics/SVG/1.1/DTD/svg11.dtd" [
	<!ENTITY ns_flows "http://ns.adobe.com/Flows/1.0/">
]><svg xmlns="http://www.w3.org/2000/svg" width="75" height="75" viewBox="-0.25 -0.25 75 75"><circle fill="none" stroke="#000" stroke-width="1.5" stroke-miterlimit="10" cx="37.25" cy="37.25" r="36.5"/><path fill="#010101" d="M42.453 43c.43 0 .774-.348.774-.778 0-.43-.346-.777-.774-.777h-.735v-.96c0-.432-.347-.777-.774-.777h-4.527c-.43 0-.776.346-.776.778v.178h-.68l-1.447-4.172 3.036-3.876c.16-.202.207-.47.127-.72l-4.54-14.106c-.062-.197-.2-.36-.385-.455-.183-.094-.396-.11-.59-.047l-11.375 3.684c-.196.064-.358.202-.453.385-.094.184-.11.397-.047.593l4.54 14.107c.08.245.275.436.523.508l4.754 1.37.945 2.728h-2.502c-.787 0-1.514.342-2.016.9h-2.57c-.43 0-.776.348-.776.778s.348.777.776.777h1.817l-4.306 13.11c-.08.24-.04.498.107.7.147.203.38.32.63.32 3.515 0 6.622-2.245 7.733-5.59l1.542-4.644c.19-.574.66-.99 1.228-1.12.188 2.12 1.102 4.097 2.624 5.617l.468.473c.152.154.35.23.55.23.195 0 .395-.075.547-.23.303-.3.303-.794 0-1.1l-.47-.466c-1.237-1.246-1.992-2.847-2.167-4.57h2.372v.178c0 .43.348.78.776.78h4.527c.428 0 .774-.35.774-.78v-.96h.735c.428 0 .773-.347.773-.776s-.346-.778-.774-.778h-.736v-.515h.74V43zM30.9 19.007l.355 1.1-9.9 3.206-.353-1.1 9.898-3.206zm-5.724 16.177l-3.344-10.39 9.898-3.208 3.346 10.392-2.9 3.698-2.484.81-4.516-1.303zm5.523 2.61l1.456-.475 1.16 3.343h-1.622l-.995-2.87zM27.475 51.17c-.782 2.352-2.783 4.034-5.162 4.436l3.204-9.755h3.813c-.127.21-.233.437-.312.677l-1.542 4.644zm-1.446-6.874l.42-1.278c.155-.48.597-.8 1.1-.8h8.09v2.078h-9.61zm14.137.958H37.19v-3.992h2.977v3.992zM54.908 49.217l-8.75-5.962 8.75-5.962c.357-.242.448-.725.207-1.08-.237-.355-.724-.448-1.077-.206l-9.695 6.606c-.215.144-.336.383-.336.64 0 .26.12.5.336.646l9.695 6.608c.135.087.286.133.437.133.248 0 .493-.12.64-.34.24-.355.15-.838-.207-1.083z"/></svg>